<?xml version="1.0" encoding="utf-8"?>
<!-- Generator: Adobe Illustrator 23.0.2, SVG Export Plug-In . SVG Version: 6.00 Build 0)  -->
<svg version="1.1" xmlns="http://www.w3.org/2000/svg" xmlns:xlink="http://www.w3.org/1999/xlink" x="0px" y="0px"
	 viewBox="0 0 862 390" style="enable-background:new 0 0 862 390;" xml:space="preserve">
<style type="text/css">
	.st0{fill:#0F8BFE;}
	.st1{fill:#DDD3D3;}
	.st2{fill:#FFFFFF;}
</style>
<g id="bg">
	<rect id="bg_1_" x="435.27" y="1" width="427" height="389"/>
</g>
<g id="logotipos">
	<g id="logo_x5F_positivo">
		<g>
			<path d="M113.01,104.29c0,9.82-7.01,16.96-16.56,16.96c-9.5,0-16.5-7.14-16.5-16.96c0-9.76,7.01-16.89,16.5-16.89
				C106,87.4,113.01,94.54,113.01,104.29z M105.35,104.29c0-6.61-4.19-10.02-8.9-10.02c-4.65,0-8.91,3.41-8.91,10.02
				c0,6.61,4.26,10.15,8.91,10.15C101.16,114.44,105.35,110.97,105.35,104.29z"/>
			<path d="M137.04,95.91c-0.85-0.13-1.7-0.2-2.49-0.2c-5.89,0-8.58,3.41-8.58,9.36v15.19h-7.59V88.38h7.4v5.11
				c1.51-3.47,5.04-5.5,9.23-5.5c0.92,0,1.7,0.13,2.03,0.2V95.91z"/>
			<path d="M141.43,120.27V75.21h7.46v17.1c1.44-2.49,5.11-4.78,10.02-4.78c9.56,0,14.73,7.27,14.73,16.63
				c0,9.63-5.7,16.89-14.99,16.89c-4.52,0-7.99-1.96-9.82-5.04v4.26H141.43z M157.4,94.27c-4.84,0-8.58,3.6-8.58,9.95
				c0,6.29,3.73,10.08,8.58,10.08c4.98,0,8.58-3.8,8.58-10.08C165.98,97.87,162.45,94.27,157.4,94.27z"/>
			<path d="M182.74,74.56c2.75,0,4.98,2.23,4.98,4.98c0,2.75-2.23,4.91-4.98,4.91c-2.68,0-4.91-2.16-4.91-4.91
				C177.83,76.78,180.06,74.56,182.74,74.56z M179.01,120.27V88.38h7.53v31.89H179.01z"/>
			<path d="M204.02,88.38h6.61v6.74h-6.61v14.8c0,2.82,1.24,3.99,4.06,3.99c1.05,0,2.29-0.2,2.62-0.26v6.29
				c-0.46,0.2-1.9,0.72-4.65,0.72c-5.89,0-9.56-3.54-9.56-9.49V95.12h-5.89v-6.74h1.64c3.4,0,4.91-2.16,4.91-4.98v-4.78h6.87V88.38z
				"/>
			<path d="M238.27,102l8.18-1.24c1.83-0.26,2.36-1.18,2.36-2.29c0-2.68-1.83-4.84-6.02-4.84c-3.99,0-6.22,2.55-6.55,5.76
				l-6.94-1.57c0.59-5.5,5.57-10.41,13.42-10.41c9.82,0,13.55,5.57,13.55,11.92v15.84c0,2.88,0.33,4.78,0.39,5.11h-7.07
				c-0.06-0.2-0.33-1.51-0.33-4.06c-1.51,2.42-4.65,5.04-9.82,5.04c-6.68,0-10.8-4.58-10.8-9.62
				C228.64,105.93,232.83,102.79,238.27,102z M248.81,107.04v-1.44l-8.32,1.24c-2.36,0.39-4.25,1.7-4.25,4.32
				c0,2.16,1.64,4.12,4.65,4.12C245.14,115.29,248.81,113.26,248.81,107.04z"/>
			<path d="M263.47,130.36V88.38h7.33v4.32c1.57-2.75,5.24-5.04,10.15-5.04c9.43,0,14.73,7.2,14.73,16.63
				c0,9.56-5.83,16.76-14.99,16.76c-4.58,0-8.05-1.96-9.69-4.39v13.69H263.47z M279.51,94.41c-4.98,0-8.58,3.93-8.58,9.89
				c0,6.09,3.6,10.02,8.58,10.02c5.04,0,8.58-3.93,8.58-10.02C288.09,98.33,284.62,94.41,279.51,94.41z"/>
			<path d="M301.06,130.36V88.38h7.33v4.32c1.57-2.75,5.24-5.04,10.15-5.04c9.43,0,14.73,7.2,14.73,16.63
				c0,9.56-5.83,16.76-14.99,16.76c-4.58,0-8.05-1.96-9.69-4.39v13.69H301.06z M317.1,94.41c-4.98,0-8.58,3.93-8.58,9.89
				c0,6.09,3.6,10.02,8.58,10.02c5.04,0,8.58-3.93,8.58-10.02C325.68,98.33,322.21,94.41,317.1,94.41z"/>
		</g>
		<g>
			<path d="M342.71,99.11c-0.83,0-1.6-0.15-2.32-0.47c-0.72-0.31-1.34-0.73-1.87-1.26s-0.94-1.16-1.25-1.87
				c-0.3-0.71-0.46-1.47-0.46-2.28v-0.03c0-0.8,0.15-1.56,0.46-2.28c0.3-0.71,0.72-1.34,1.26-1.88c0.53-0.54,1.16-0.96,1.88-1.28
				c0.72-0.31,1.5-0.47,2.32-0.47c0.83,0,1.6,0.15,2.32,0.46c0.72,0.31,1.34,0.73,1.87,1.26c0.53,0.53,0.94,1.16,1.25,1.87
				c0.3,0.71,0.46,1.47,0.46,2.27v0.03c0,0.8-0.15,1.56-0.46,2.27c-0.3,0.71-0.72,1.34-1.26,1.88c-0.53,0.54-1.16,0.97-1.88,1.28
				C344.32,98.95,343.54,99.11,342.71,99.11z M342.71,98.19c0.71,0,1.37-0.13,1.97-0.39c0.6-0.26,1.13-0.62,1.57-1.07
				c0.44-0.45,0.79-0.98,1.04-1.59c0.25-0.61,0.38-1.25,0.38-1.93v-0.03c0-0.68-0.13-1.32-0.38-1.93c-0.25-0.6-0.6-1.13-1.04-1.58
				s-0.96-0.8-1.56-1.06c-0.6-0.26-1.26-0.39-1.96-0.39c-0.71,0-1.37,0.13-1.97,0.4c-0.6,0.26-1.13,0.62-1.57,1.07
				c-0.44,0.45-0.79,0.98-1.05,1.59c-0.25,0.61-0.38,1.25-0.38,1.94v0.03c0,0.68,0.12,1.32,0.37,1.93c0.25,0.6,0.59,1.13,1.04,1.58
				c0.44,0.45,0.97,0.8,1.57,1.06C341.36,98.06,342.01,98.19,342.71,98.19z M340.58,90.27h2.47c0.74,0,1.31,0.2,1.72,0.61
				c0.31,0.31,0.46,0.71,0.46,1.21v0.03c0,0.45-0.11,0.82-0.33,1.1c-0.22,0.28-0.51,0.49-0.87,0.62l1.36,1.99h-1.43l-1.18-1.79
				h-0.03h-0.94v1.79h-1.23V90.27z M343.03,92.99c0.31,0,0.54-0.07,0.71-0.22c0.16-0.15,0.25-0.34,0.25-0.57v-0.03
				c0-0.27-0.09-0.47-0.26-0.61c-0.17-0.13-0.41-0.2-0.72-0.2h-1.2v1.63H343.03z"/>
		</g>
		<rect x="73.7" y="100.72" class="st0" width="44.69" height="7.74"/>
	</g>
	<g id="logo_x5F_positivo_1_">
		<g>
			<g>
				<path d="M98.33,239.83c0,6.16-4.46,10.64-10.54,10.64c-6.04,0-10.5-4.48-10.5-10.64c0-6.12,4.46-10.6,10.5-10.6
					C93.87,229.24,98.33,233.71,98.33,239.83z M93.45,239.83c0-4.15-2.67-6.28-5.67-6.28c-2.96,0-5.67,2.14-5.67,6.28
					c0,4.15,2.71,6.36,5.67,6.36C90.78,246.2,93.45,244.02,93.45,239.83z"/>
			</g>
			<rect x="73.3" y="237.59" class="st0" width="28.45" height="4.85"/>
		</g>
		<circle class="st1" cx="116.28" cy="239.45" r="15.45"/>
	</g>
	<g id="logo_x5F_negativo">
		<g>
			<path class="st2" d="M553.28,207.29c0,9.82-7.01,16.96-16.56,16.96c-9.5,0-16.5-7.14-16.5-16.96c0-9.76,7.01-16.89,16.5-16.89
				C546.27,190.4,553.28,197.54,553.28,207.29z M545.62,207.29c0-6.61-4.19-10.02-8.9-10.02c-4.65,0-8.91,3.41-8.91,10.02
				c0,6.61,4.26,10.15,8.91,10.15C541.43,217.44,545.62,213.97,545.62,207.29z"/>
			<path class="st2" d="M577.31,198.91c-0.85-0.13-1.7-0.2-2.49-0.2c-5.89,0-8.58,3.41-8.58,9.36v15.19h-7.59v-31.89h7.4v5.11
				c1.51-3.47,5.04-5.5,9.23-5.5c0.92,0,1.7,0.13,2.03,0.2V198.91z"/>
			<path class="st2" d="M581.69,223.27v-45.06h7.46v17.1c1.44-2.49,5.11-4.78,10.02-4.78c9.56,0,14.73,7.27,14.73,16.63
				c0,9.63-5.7,16.89-14.99,16.89c-4.52,0-7.99-1.96-9.82-5.04v4.26H581.69z M597.67,197.27c-4.84,0-8.58,3.6-8.58,9.95
				c0,6.29,3.73,10.08,8.58,10.08c4.98,0,8.58-3.8,8.58-10.08C606.25,200.87,602.71,197.27,597.67,197.27z"/>
			<path class="st2" d="M623.01,177.56c2.75,0,4.98,2.23,4.98,4.98c0,2.75-2.23,4.91-4.98,4.91c-2.68,0-4.91-2.16-4.91-4.91
				C618.1,179.78,620.33,177.56,623.01,177.56z M619.28,223.27v-31.89h7.53v31.89H619.28z"/>
			<path class="st2" d="M644.29,191.38h6.61v6.74h-6.61v14.8c0,2.82,1.24,3.99,4.06,3.99c1.05,0,2.29-0.2,2.62-0.26v6.29
				c-0.46,0.2-1.9,0.72-4.65,0.72c-5.89,0-9.56-3.54-9.56-9.49v-16.04h-5.89v-6.74h1.64c3.4,0,4.91-2.16,4.91-4.98v-4.78h6.87
				V191.38z"/>
			<path class="st2" d="M678.53,205l8.18-1.24c1.83-0.26,2.36-1.18,2.36-2.29c0-2.68-1.83-4.84-6.02-4.84
				c-3.99,0-6.22,2.55-6.55,5.76l-6.94-1.57c0.59-5.5,5.57-10.41,13.42-10.41c9.82,0,13.55,5.57,13.55,11.92v15.84
				c0,2.88,0.33,4.78,0.39,5.11h-7.07c-0.06-0.2-0.33-1.51-0.33-4.06c-1.51,2.42-4.65,5.04-9.82,5.04c-6.68,0-10.8-4.58-10.8-9.62
				C668.91,208.93,673.1,205.79,678.53,205z M689.08,210.04v-1.44l-8.32,1.24c-2.36,0.39-4.25,1.7-4.25,4.32
				c0,2.16,1.64,4.12,4.65,4.12C685.41,218.29,689.08,216.26,689.08,210.04z"/>
			<path class="st2" d="M703.74,233.36v-41.98h7.33v4.32c1.57-2.75,5.24-5.04,10.15-5.04c9.43,0,14.73,7.2,14.73,16.63
				c0,9.56-5.83,16.76-14.99,16.76c-4.58,0-8.05-1.96-9.69-4.39v13.69H703.74z M719.78,197.41c-4.98,0-8.58,3.93-8.58,9.89
				c0,6.09,3.6,10.02,8.58,10.02c5.04,0,8.58-3.93,8.58-10.02C728.36,201.33,724.89,197.41,719.78,197.41z"/>
			<path class="st2" d="M741.32,233.36v-41.98h7.33v4.32c1.57-2.75,5.24-5.04,10.15-5.04c9.43,0,14.73,7.2,14.73,16.63
				c0,9.56-5.83,16.76-14.99,16.76c-4.58,0-8.05-1.96-9.69-4.39v13.69H741.32z M757.37,197.41c-4.98,0-8.58,3.93-8.58,9.89
				c0,6.09,3.6,10.02,8.58,10.02c5.04,0,8.58-3.93,8.58-10.02C765.94,201.33,762.47,197.41,757.37,197.41z"/>
		</g>
		<g>
			<path class="st2" d="M782.98,202.11c-0.83,0-1.6-0.15-2.32-0.47c-0.72-0.31-1.34-0.73-1.87-1.26c-0.53-0.53-0.94-1.16-1.25-1.87
				c-0.3-0.71-0.46-1.47-0.46-2.28v-0.03c0-0.8,0.15-1.56,0.46-2.28c0.3-0.71,0.72-1.34,1.26-1.88c0.53-0.54,1.16-0.96,1.88-1.28
				c0.72-0.31,1.5-0.47,2.32-0.47c0.83,0,1.6,0.15,2.32,0.46c0.72,0.31,1.34,0.73,1.87,1.26s0.94,1.16,1.25,1.87
				c0.3,0.71,0.46,1.47,0.46,2.27v0.03c0,0.8-0.15,1.56-0.46,2.27c-0.3,0.71-0.72,1.34-1.26,1.88c-0.53,0.54-1.16,0.97-1.88,1.28
				C784.58,201.95,783.81,202.11,782.98,202.11z M782.98,201.19c0.71,0,1.37-0.13,1.97-0.39c0.6-0.26,1.13-0.62,1.57-1.07
				c0.44-0.45,0.79-0.98,1.04-1.59c0.25-0.61,0.38-1.25,0.38-1.93v-0.03c0-0.68-0.13-1.32-0.38-1.93c-0.25-0.6-0.6-1.13-1.04-1.58
				c-0.44-0.45-0.96-0.8-1.56-1.06c-0.6-0.26-1.26-0.39-1.96-0.39c-0.71,0-1.37,0.13-1.97,0.4c-0.6,0.26-1.13,0.62-1.57,1.07
				c-0.44,0.45-0.79,0.98-1.04,1.59c-0.25,0.61-0.38,1.25-0.38,1.94v0.03c0,0.68,0.12,1.32,0.37,1.93c0.25,0.6,0.59,1.13,1.04,1.58
				c0.44,0.45,0.97,0.8,1.57,1.06C781.63,201.06,782.28,201.19,782.98,201.19z M780.85,193.27h2.47c0.74,0,1.31,0.2,1.72,0.61
				c0.31,0.31,0.46,0.71,0.46,1.21v0.03c0,0.45-0.11,0.82-0.33,1.1c-0.22,0.28-0.51,0.49-0.87,0.62l1.36,1.99h-1.43l-1.18-1.79
				h-0.03h-0.94v1.79h-1.23V193.27z M783.3,195.99c0.31,0,0.54-0.07,0.71-0.22c0.16-0.15,0.25-0.34,0.25-0.57v-0.03
				c0-0.27-0.09-0.47-0.26-0.61c-0.17-0.13-0.41-0.2-0.72-0.2h-1.2v1.63H783.3z"/>
		</g>
		<rect x="513.96" y="203.72" class="st0" width="44.69" height="7.74"/>
	</g>
</g>
</svg>
